<svg xmlns="http://www.w3.org/2000/svg" viewBox="0 0 200 250" width="200" height="250">
  <!-- น้องกระต่ายท่าปกติ -->
  <!-- หู -->
  <ellipse cx="75" cy="50" rx="20" ry="45" fill="#FFB6C1" stroke="#FF69B4" stroke-width="2"/>
  <ellipse cx="75" cy="50" rx="12" ry="35" fill="#FFC0CB"/>
  <ellipse cx="125" cy="50" rx="20" ry="45" fill="#FFB6C1" stroke="#FF69B4" stroke-width="2"/>
  <ellipse cx="125" cy="50" rx="12" ry="35" fill="#FFC0CB"/>
  <!-- หัว -->
  <circle cx="100" cy="120" r="55" fill="#FFB6C1" stroke="#FF69B4" stroke-width="2"/>
  <!-- ตา -->
  <circle cx="82" cy="112" r="8" fill="white"/>
  <circle cx="84" cy="112" r="5" fill="#333"/>
  <circle cx="86" cy="110" r="2" fill="white"/>
  <circle cx="118" cy="112" r="8" fill="white"/>
  <circle cx="120" cy="112" r="5" fill="#333"/>
  <circle cx="122" cy="110" r="2" fill="white"/>
  <!-- จมูก -->
  <ellipse cx="100" cy="128" rx="5" ry="4" fill="#FF69B4"/>
  <!-- ปาก -->
  <path d="M 92 135 Q 100 142 108 135" fill="none" stroke="#FF69B4" stroke-width="2" stroke-linecap="round"/>
  <!-- แก้ม -->
  <circle cx="68" cy="128" r="8" fill="#FFB6C1" opacity="0.5"/>
  <circle cx="132" cy="128" r="8" fill="#FFB6C1" opacity="0.5"/>
  <!-- ตัว -->
  <ellipse cx="100" cy="200" rx="40" ry="35" fill="#FFB6C1" stroke="#FF69B4" stroke-width="2"/>
  <!-- ท้อง -->
  <ellipse cx="100" cy="205" rx="25" ry="22" fill="#FFF0F5"/>
  <!-- เท้า -->
  <ellipse cx="75" cy="232" rx="18" ry="10" fill="#FFB6C1" stroke="#FF69B4" stroke-width="2"/>
  <ellipse cx="125" cy="232" rx="18" ry="10" fill="#FFB6C1" stroke="#FF69B4" stroke-width="2"/>
</svg>
