<svg xmlns="http://www.w3.org/2000/svg" viewBox="0 0 200 250" width="200" height="250">
  <!-- แมวส้ม - เศร้า -->
  <polygon points="65,75 55,30 90,65" fill="#FFAA55" stroke="#E8903C" stroke-width="2" transform="rotate(-8,75,55)"/>
  <polygon points="68,72 60,36 86,63" fill="#FFD4A8" transform="rotate(-8,75,55)"/>
  <polygon points="135,75 145,30 110,65" fill="#FFAA55" stroke="#E8903C" stroke-width="2" transform="rotate(8,125,55)"/>
  <polygon points="132,72 140,36 114,63" fill="#FFD4A8" transform="rotate(8,125,55)"/>
  <circle cx="100" cy="120" r="52" fill="#FFAA55" stroke="#E8903C" stroke-width="2"/>
  <ellipse cx="80" cy="112" rx="8" ry="9" fill="white"/>
  <ellipse cx="82" cy="114" rx="4" ry="6" fill="#2D8B2D"/>
  <circle cx="83" cy="112" r="2" fill="white"/>
  <ellipse cx="120" cy="112" rx="8" ry="9" fill="white"/>
  <ellipse cx="122" cy="114" rx="4" ry="6" fill="#2D8B2D"/>
  <circle cx="123" cy="112" r="2" fill="white"/>
  <path d="M 72 104 Q 78 100 86 104" fill="none" stroke="#333" stroke-width="2" stroke-linecap="round"/>
  <path d="M 114 104 Q 120 100 128 104" fill="none" stroke="#333" stroke-width="2" stroke-linecap="round"/>
  <ellipse cx="100" cy="126" rx="5" ry="3.5" fill="#E8903C"/>
  <path d="M 92 136 Q 100 130 108 136" fill="none" stroke="#E8903C" stroke-width="1.8" stroke-linecap="round"/>
  <line x1="55" y1="122" x2="78" y2="126" stroke="#E8903C" stroke-width="1.2"/>
  <line x1="55" y1="130" x2="78" y2="130" stroke="#E8903C" stroke-width="1.2"/>
  <line x1="122" y1="126" x2="145" y2="122" stroke="#E8903C" stroke-width="1.2"/>
  <line x1="122" y1="130" x2="145" y2="130" stroke="#E8903C" stroke-width="1.2"/>
  <ellipse cx="73" cy="120" rx="3" ry="5" fill="#87CEEB" opacity="0.6"/>
  <ellipse cx="127" cy="122" rx="3" ry="5" fill="#87CEEB" opacity="0.6"/>
  <ellipse cx="100" cy="200" rx="38" ry="34" fill="#FFAA55" stroke="#E8903C" stroke-width="2"/>
  <ellipse cx="100" cy="205" rx="24" ry="20" fill="#FFE4C4"/>
  <ellipse cx="75" cy="230" rx="16" ry="10" fill="#FFAA55" stroke="#E8903C" stroke-width="2"/>
  <ellipse cx="125" cy="230" rx="16" ry="10" fill="#FFAA55" stroke="#E8903C" stroke-width="2"/>
</svg>
