<svg xmlns="http://www.w3.org/2000/svg" viewBox="0 0 200 250" width="200" height="250">
  <!-- สุนัขเหลือง - เศร้า -->
  <ellipse cx="62" cy="105" rx="18" ry="32" fill="#F5D76E" stroke="#D4A843" stroke-width="2" transform="rotate(-25,62,105)"/>
  <ellipse cx="62" cy="105" rx="10" ry="22" fill="#FBE9A0" transform="rotate(-25,62,105)"/>
  <ellipse cx="138" cy="105" rx="18" ry="32" fill="#F5D76E" stroke="#D4A843" stroke-width="2" transform="rotate(25,138,105)"/>
  <ellipse cx="138" cy="105" rx="10" ry="22" fill="#FBE9A0" transform="rotate(25,138,105)"/>
  <circle cx="100" cy="115" r="50" fill="#F5D76E" stroke="#D4A843" stroke-width="2"/>
  <circle cx="82" cy="108" r="7" fill="white"/>
  <circle cx="84" cy="110" r="4.5" fill="#333"/>
  <circle cx="85" cy="108" r="1.8" fill="white"/>
  <circle cx="118" cy="108" r="7" fill="white"/>
  <circle cx="120" cy="110" r="4.5" fill="#333"/>
  <circle cx="121" cy="108" r="1.8" fill="white"/>
  <path d="M 74 100 Q 80 96 88 100" fill="none" stroke="#333" stroke-width="2" stroke-linecap="round"/>
  <path d="M 112 100 Q 118 96 126 100" fill="none" stroke="#333" stroke-width="2" stroke-linecap="round"/>
  <ellipse cx="73" cy="116" rx="3" ry="5" fill="#87CEEB" opacity="0.6"/>
  <ellipse cx="127" cy="118" rx="3" ry="5" fill="#87CEEB" opacity="0.6"/>
  <ellipse cx="100" cy="122" rx="7" ry="5" fill="#D4A843"/>
  <path d="M 90 136 Q 100 130 110 136" fill="none" stroke="#D4A843" stroke-width="2" stroke-linecap="round"/>
  <circle cx="68" cy="124" r="6" fill="#FBE9A0" opacity="0.4"/>
  <circle cx="132" cy="124" r="6" fill="#FBE9A0" opacity="0.4"/>
  <ellipse cx="100" cy="198" rx="38" ry="33" fill="#F5D76E" stroke="#D4A843" stroke-width="2"/>
  <ellipse cx="100" cy="202" rx="24" ry="20" fill="#FBE9A0"/>
  <ellipse cx="74" cy="228" rx="17" ry="10" fill="#F5D76E" stroke="#D4A843" stroke-width="2"/>
  <ellipse cx="126" cy="228" rx="17" ry="10" fill="#F5D76E" stroke="#D4A843" stroke-width="2"/>
</svg>
