<svg xmlns="http://www.w3.org/2000/svg" viewBox="0 0 200 250" width="200" height="250">
  <!-- หมีม่วง - ดีใจ -->
  <circle cx="65" cy="72" r="22" fill="#B088D4" stroke="#9066B0" stroke-width="2"/>
  <circle cx="65" cy="72" r="13" fill="#D4B8E8"/>
  <circle cx="135" cy="72" r="22" fill="#B088D4" stroke="#9066B0" stroke-width="2"/>
  <circle cx="135" cy="72" r="13" fill="#D4B8E8"/>
  <circle cx="100" cy="120" r="55" fill="#B088D4" stroke="#9066B0" stroke-width="2"/>
  <path d="M 72 110 Q 80 104 88 110" fill="none" stroke="#333" stroke-width="3" stroke-linecap="round"/>
  <path d="M 112 110 Q 120 104 128 110" fill="none" stroke="#333" stroke-width="3" stroke-linecap="round"/>
  <ellipse cx="100" cy="125" rx="8" ry="6" fill="#D4B8E8"/>
  <ellipse cx="100" cy="124" rx="4" ry="3" fill="#9066B0"/>
  <path d="M 88 132 Q 100 148 112 132" fill="#9066B0" stroke="#7D5A9E" stroke-width="2"/>
  <path d="M 92 132 Q 100 142 108 132" fill="#D4B8E8"/>
  <circle cx="66" cy="126" r="8" fill="#D4B8E8" opacity="0.7"/>
  <circle cx="134" cy="126" r="8" fill="#D4B8E8" opacity="0.7"/>
  <text x="42" y="78" font-size="16" fill="#FFD700">&#x2605;</text>
  <text x="148" y="73" font-size="14" fill="#FFD700">&#x2605;</text>
  <ellipse cx="100" cy="202" rx="42" ry="36" fill="#B088D4" stroke="#9066B0" stroke-width="2"/>
  <ellipse cx="100" cy="207" rx="27" ry="23" fill="#D4B8E8"/>
  <ellipse cx="52" cy="192" rx="12" ry="8" fill="#B088D4" stroke="#9066B0" stroke-width="2" transform="rotate(-30,52,192)"/>
  <ellipse cx="148" cy="192" rx="12" ry="8" fill="#B088D4" stroke="#9066B0" stroke-width="2" transform="rotate(30,148,192)"/>
  <ellipse cx="72" cy="234" rx="18" ry="11" fill="#B088D4" stroke="#9066B0" stroke-width="2"/>
  <ellipse cx="128" cy="234" rx="18" ry="11" fill="#B088D4" stroke="#9066B0" stroke-width="2"/>
</svg>
