<svg xmlns="http://www.w3.org/2000/svg" viewBox="0 0 200 250" width="200" height="250">
  <!-- แมวส้ม - ดีใจ -->
  <polygon points="65,75 55,25 90,65" fill="#FFAA55" stroke="#E8903C" stroke-width="2"/>
  <polygon points="68,70 60,32 86,63" fill="#FFD4A8"/>
  <polygon points="135,75 145,25 110,65" fill="#FFAA55" stroke="#E8903C" stroke-width="2"/>
  <polygon points="132,70 140,32 114,63" fill="#FFD4A8"/>
  <circle cx="100" cy="120" r="52" fill="#FFAA55" stroke="#E8903C" stroke-width="2"/>
  <path d="M 72 112 Q 80 106 88 112" fill="none" stroke="#333" stroke-width="3" stroke-linecap="round"/>
  <path d="M 112 112 Q 120 106 128 112" fill="none" stroke="#333" stroke-width="3" stroke-linecap="round"/>
  <ellipse cx="100" cy="126" rx="5" ry="3.5" fill="#E8903C"/>
  <path d="M 88 131 Q 100 145 112 131" fill="#E8903C" stroke="#D47B2E" stroke-width="2"/>
  <path d="M 92 131 Q 100 140 108 131" fill="#FFD4A8"/>
  <line x1="55" y1="122" x2="78" y2="126" stroke="#E8903C" stroke-width="1.2"/>
  <line x1="55" y1="130" x2="78" y2="130" stroke="#E8903C" stroke-width="1.2"/>
  <line x1="122" y1="126" x2="145" y2="122" stroke="#E8903C" stroke-width="1.2"/>
  <line x1="122" y1="130" x2="145" y2="130" stroke="#E8903C" stroke-width="1.2"/>
  <text x="45" y="80" font-size="16" fill="#FFD700">&#x2605;</text>
  <text x="145" y="75" font-size="14" fill="#FFD700">&#x2605;</text>
  <ellipse cx="100" cy="200" rx="38" ry="34" fill="#FFAA55" stroke="#E8903C" stroke-width="2"/>
  <ellipse cx="100" cy="205" rx="24" ry="20" fill="#FFE4C4"/>
  <ellipse cx="55" cy="188" rx="11" ry="7" fill="#FFAA55" stroke="#E8903C" stroke-width="2" transform="rotate(-30,55,188)"/>
  <ellipse cx="145" cy="188" rx="11" ry="7" fill="#FFAA55" stroke="#E8903C" stroke-width="2" transform="rotate(30,145,188)"/>
  <ellipse cx="75" cy="230" rx="16" ry="10" fill="#FFAA55" stroke="#E8903C" stroke-width="2"/>
  <ellipse cx="125" cy="230" rx="16" ry="10" fill="#FFAA55" stroke="#E8903C" stroke-width="2"/>
</svg>
