<svg xmlns="http://www.w3.org/2000/svg" viewBox="0 0 200 250" width="200" height="250">
  <!-- กระต่ายฟ้า (Blue Bunny) -->
  <ellipse cx="75" cy="50" rx="20" ry="45" fill="#7EC8E3" stroke="#5BA3C9" stroke-width="2"/>
  <ellipse cx="75" cy="50" rx="12" ry="35" fill="#A8DCF0"/>
  <ellipse cx="125" cy="50" rx="20" ry="45" fill="#7EC8E3" stroke="#5BA3C9" stroke-width="2"/>
  <ellipse cx="125" cy="50" rx="12" ry="35" fill="#A8DCF0"/>
  <!-- หัว -->
  <circle cx="100" cy="120" r="55" fill="#7EC8E3" stroke="#5BA3C9" stroke-width="2"/>
  <!-- ตา -->
  <circle cx="82" cy="112" r="8" fill="white"/>
  <circle cx="84" cy="112" r="5" fill="#333"/>
  <circle cx="86" cy="110" r="2" fill="white"/>
  <circle cx="118" cy="112" r="8" fill="white"/>
  <circle cx="120" cy="112" r="5" fill="#333"/>
  <circle cx="122" cy="110" r="2" fill="white"/>
  <!-- จมูก -->
  <ellipse cx="100" cy="128" rx="5" ry="4" fill="#5BA3C9"/>
  <!-- ปาก -->
  <path d="M 92 135 Q 100 142 108 135" fill="none" stroke="#5BA3C9" stroke-width="2" stroke-linecap="round"/>
  <!-- แก้ม -->
  <circle cx="68" cy="128" r="8" fill="#A8DCF0" opacity="0.5"/>
  <circle cx="132" cy="128" r="8" fill="#A8DCF0" opacity="0.5"/>
  <!-- ดาว (star accessory) -->
  <polygon points="100,60 103,68 112,68 105,73 108,82 100,77 92,82 95,73 88,68 97,68" fill="#FFD93D" stroke="#E8C430" stroke-width="1"/>
  <!-- ตัว -->
  <ellipse cx="100" cy="200" rx="40" ry="35" fill="#7EC8E3" stroke="#5BA3C9" stroke-width="2"/>
  <ellipse cx="100" cy="205" rx="25" ry="22" fill="#D4EEF7"/>
  <!-- เท้า -->
  <ellipse cx="75" cy="232" rx="18" ry="10" fill="#7EC8E3" stroke="#5BA3C9" stroke-width="2"/>
  <ellipse cx="125" cy="232" rx="18" ry="10" fill="#7EC8E3" stroke="#5BA3C9" stroke-width="2"/>
</svg>
