<svg xmlns="http://www.w3.org/2000/svg" viewBox="0 0 200 250" width="200" height="250">
  <!-- สุนัขเหลือง (Yellow Dog) -->
  <!-- หู (ตูบหูตก) -->
  <ellipse cx="62" cy="100" rx="18" ry="32" fill="#F5D76E" stroke="#D4A843" stroke-width="2" transform="rotate(-15 62 100)"/>
  <ellipse cx="62" cy="100" rx="10" ry="22" fill="#FBE9A0" transform="rotate(-15 62 100)"/>
  <ellipse cx="138" cy="100" rx="18" ry="32" fill="#F5D76E" stroke="#D4A843" stroke-width="2" transform="rotate(15 138 100)"/>
  <ellipse cx="138" cy="100" rx="10" ry="22" fill="#FBE9A0" transform="rotate(15 138 100)"/>
  <!-- หัว -->
  <circle cx="100" cy="115" r="50" fill="#F5D76E" stroke="#D4A843" stroke-width="2"/>
  <!-- ตา -->
  <circle cx="82" cy="108" r="7" fill="white"/>
  <circle cx="84" cy="109" r="4.5" fill="#333"/>
  <circle cx="85" cy="107" r="1.8" fill="white"/>
  <circle cx="118" cy="108" r="7" fill="white"/>
  <circle cx="120" cy="109" r="4.5" fill="#333"/>
  <circle cx="121" cy="107" r="1.8" fill="white"/>
  <!-- จมูก -->
  <ellipse cx="100" cy="122" rx="7" ry="5" fill="#D4A843"/>
  <!-- ปาก -->
  <path d="M 92 130 Q 100 138 108 130" fill="none" stroke="#D4A843" stroke-width="2" stroke-linecap="round"/>
  <!-- ลิ้น -->
  <ellipse cx="100" cy="136" rx="5" ry="6" fill="#FF8888" opacity="0.7"/>
  <!-- แก้ม -->
  <circle cx="68" cy="124" r="6" fill="#FBE9A0" opacity="0.5"/>
  <circle cx="132" cy="124" r="6" fill="#FBE9A0" opacity="0.5"/>
  <!-- ตัว -->
  <ellipse cx="100" cy="198" rx="38" ry="33" fill="#F5D76E" stroke="#D4A843" stroke-width="2"/>
  <ellipse cx="100" cy="202" rx="24" ry="20" fill="#FBE9A0"/>
  <!-- เท้า -->
  <ellipse cx="74" cy="228" rx="17" ry="10" fill="#F5D76E" stroke="#D4A843" stroke-width="2"/>
  <ellipse cx="126" cy="228" rx="17" ry="10" fill="#F5D76E" stroke="#D4A843" stroke-width="2"/>
</svg>
