<svg xmlns="http://www.w3.org/2000/svg" viewBox="0 0 200 250" width="200" height="250">
  <!-- กระต่ายฟ้า - เศร้า -->
  <ellipse cx="68" cy="55" rx="20" ry="42" fill="#7EC8E3" stroke="#5BA3C9" stroke-width="2" transform="rotate(-20,68,55)"/>
  <ellipse cx="68" cy="55" rx="12" ry="32" fill="#A8DCF0" transform="rotate(-20,68,55)"/>
  <ellipse cx="132" cy="55" rx="20" ry="42" fill="#7EC8E3" stroke="#5BA3C9" stroke-width="2" transform="rotate(20,132,55)"/>
  <ellipse cx="132" cy="55" rx="12" ry="32" fill="#A8DCF0" transform="rotate(20,132,55)"/>
  <circle cx="100" cy="120" r="55" fill="#7EC8E3" stroke="#5BA3C9" stroke-width="2"/>
  <circle cx="82" cy="112" r="8" fill="white"/>
  <circle cx="84" cy="114" r="5" fill="#333"/>
  <circle cx="86" cy="112" r="2" fill="white"/>
  <circle cx="118" cy="112" r="8" fill="white"/>
  <circle cx="120" cy="114" r="5" fill="#333"/>
  <circle cx="122" cy="112" r="2" fill="white"/>
  <path d="M 74 102 Q 80 98 88 102" fill="none" stroke="#333" stroke-width="2" stroke-linecap="round"/>
  <path d="M 112 102 Q 118 98 126 102" fill="none" stroke="#333" stroke-width="2" stroke-linecap="round"/>
  <ellipse cx="73" cy="120" rx="3" ry="5" fill="#87CEEB" opacity="0.7"/>
  <ellipse cx="127" cy="122" rx="3" ry="5" fill="#87CEEB" opacity="0.7"/>
  <ellipse cx="100" cy="128" rx="5" ry="4" fill="#5BA3C9"/>
  <path d="M 90 140 Q 100 133 110 140" fill="none" stroke="#5BA3C9" stroke-width="2" stroke-linecap="round"/>
  <circle cx="68" cy="128" r="8" fill="#A8DCF0" opacity="0.3"/>
  <circle cx="132" cy="128" r="8" fill="#A8DCF0" opacity="0.3"/>
  <polygon points="100,60 103,68 112,68 105,73 108,82 100,77 92,82 95,73 88,68 97,68" fill="#FFD93D" stroke="#E8C430" stroke-width="1" opacity="0.5"/>
  <ellipse cx="100" cy="200" rx="40" ry="35" fill="#7EC8E3" stroke="#5BA3C9" stroke-width="2"/>
  <ellipse cx="100" cy="205" rx="25" ry="22" fill="#D4EEF7"/>
  <ellipse cx="75" cy="232" rx="18" ry="10" fill="#7EC8E3" stroke="#5BA3C9" stroke-width="2"/>
  <ellipse cx="125" cy="232" rx="18" ry="10" fill="#7EC8E3" stroke="#5BA3C9" stroke-width="2"/>
</svg>
