<svg xmlns="http://www.w3.org/2000/svg" viewBox="0 0 200 250" width="200" height="250">
  <!-- กระต่ายฟ้า - ดีใจ -->
  <ellipse cx="70" cy="40" rx="20" ry="45" fill="#7EC8E3" stroke="#5BA3C9" stroke-width="2" transform="rotate(-10,70,40)"/>
  <ellipse cx="70" cy="40" rx="12" ry="35" fill="#A8DCF0" transform="rotate(-10,70,40)"/>
  <ellipse cx="130" cy="40" rx="20" ry="45" fill="#7EC8E3" stroke="#5BA3C9" stroke-width="2" transform="rotate(10,130,40)"/>
  <ellipse cx="130" cy="40" rx="12" ry="35" fill="#A8DCF0" transform="rotate(10,130,40)"/>
  <circle cx="100" cy="120" r="55" fill="#7EC8E3" stroke="#5BA3C9" stroke-width="2"/>
  <path d="M 74 110 Q 82 104 90 110" fill="none" stroke="#333" stroke-width="3" stroke-linecap="round"/>
  <path d="M 110 110 Q 118 104 126 110" fill="none" stroke="#333" stroke-width="3" stroke-linecap="round"/>
  <ellipse cx="100" cy="128" rx="5" ry="4" fill="#5BA3C9"/>
  <path d="M 85 135 Q 100 152 115 135" fill="#5BA3C9" stroke="#4A8FB5" stroke-width="2"/>
  <path d="M 90 135 Q 100 145 110 135" fill="#A8DCF0"/>
  <circle cx="68" cy="128" r="10" fill="#A8DCF0" opacity="0.5"/>
  <circle cx="132" cy="128" r="10" fill="#A8DCF0" opacity="0.5"/>
  <polygon points="100,55 103,63 112,63 105,68 108,77 100,72 92,77 95,68 88,63 97,63" fill="#FFD93D" stroke="#E8C430" stroke-width="1"/>
  <text x="45" y="80" font-size="16" fill="#FFD700">&#x2605;</text>
  <text x="145" y="75" font-size="14" fill="#FFD700">&#x2605;</text>
  <ellipse cx="100" cy="200" rx="40" ry="35" fill="#7EC8E3" stroke="#5BA3C9" stroke-width="2"/>
  <ellipse cx="100" cy="205" rx="25" ry="22" fill="#D4EEF7"/>
  <ellipse cx="55" cy="188" rx="12" ry="8" fill="#7EC8E3" stroke="#5BA3C9" stroke-width="2" transform="rotate(-30,55,188)"/>
  <ellipse cx="145" cy="188" rx="12" ry="8" fill="#7EC8E3" stroke="#5BA3C9" stroke-width="2" transform="rotate(30,145,188)"/>
  <ellipse cx="75" cy="232" rx="18" ry="10" fill="#7EC8E3" stroke="#5BA3C9" stroke-width="2"/>
  <ellipse cx="125" cy="232" rx="18" ry="10" fill="#7EC8E3" stroke="#5BA3C9" stroke-width="2"/>
</svg>
